<svg width="327" height="71" viewBox="0 0 327 71" fill="none" xmlns="http://www.w3.org/2000/svg">
<path d="M47.8216 1.53148L30.0351 11.8802C29.7776 12.03 29.6192 12.3054 29.6192 12.6034V29.9962C29.6192 30.3001 29.4544 30.5802 29.1888 30.7277L20.988 35.2816C20.4307 35.5911 19.7461 35.1879 19.7461 34.5501V15.188C19.7461 14.5503 19.0616 14.147 18.5043 14.4565L0.430399 24.493C0.164772 24.6405 0 24.9206 0 25.2245V46.6275C0 47.2616 0.677596 47.6652 1.23472 47.3629L8.3641 43.4944C8.92123 43.1921 9.59882 43.5957 9.59882 44.2299V70.1621C9.59882 70.8054 10.2942 71.2081 10.8516 70.8875L29.1997 60.3358C29.4592 60.1865 29.6192 59.9099 29.6192 59.6104V35.0804C29.6192 34.7833 29.7768 34.5084 30.0331 34.3583L47.5585 24.0981C48.1159 23.7718 48.8169 24.174 48.8169 24.8202V70.1521C48.8169 70.7976 49.5166 71.2 50.074 70.875L68.1478 60.3366C68.4049 60.1867 68.563 59.9114 68.563 59.6137V13.9369C68.563 13.8247 68.5394 13.711 68.4953 13.6078C64.0918 3.30181 59.4807 0.794595 48.1964 1.41961C48.0654 1.42687 47.935 1.46549 47.8216 1.53148Z" fill="#0A69E1"/>
<path d="M121.864 43.1622H115.478L96.2623 14.0698V43.1622H89.8759V4.14806H96.2623L115.478 33.1845V4.14806H121.864V43.1622Z" fill="#0A090B"/>
<path d="M141.967 43.6667C139.054 43.6667 136.421 43.0127 134.068 41.7048C131.715 40.3595 129.867 38.491 128.522 36.0993C127.178 33.6703 126.505 30.8675 126.505 27.6911C126.505 24.552 127.196 21.768 128.578 19.3389C129.96 16.9099 131.846 15.0414 134.236 13.7334C136.627 12.4255 139.297 11.7715 142.247 11.7715C145.198 11.7715 147.868 12.4255 150.258 13.7334C152.649 15.0414 154.535 16.9099 155.916 19.3389C157.298 21.768 157.989 24.552 157.989 27.6911C157.989 30.8301 157.28 33.6142 155.86 36.0432C154.441 38.4723 152.499 40.3595 150.034 41.7048C147.607 43.0127 144.918 43.6667 141.967 43.6667ZM141.967 38.1173C143.61 38.1173 145.142 37.7249 146.561 36.9401C148.017 36.1554 149.194 34.9782 150.09 33.4087C150.987 31.8391 151.435 29.9333 151.435 27.6911C151.435 25.4489 151.005 23.5617 150.146 22.0295C149.287 20.46 148.148 19.2829 146.729 18.4981C145.31 17.7133 143.779 17.3209 142.135 17.3209C140.492 17.3209 138.961 17.7133 137.542 18.4981C136.16 19.2829 135.058 20.46 134.236 22.0295C133.415 23.5617 133.004 25.4489 133.004 27.6911C133.004 31.017 133.844 33.5955 135.525 35.4266C137.243 37.2204 139.39 38.1173 141.967 38.1173Z" fill="#0A090B"/>
<path d="M174.563 37.4446L183.302 12.276H190.081L178.316 43.1622H170.697L158.989 12.276H165.823L174.563 37.4446Z" fill="#0A090B"/>
<path d="M191.107 27.579C191.107 24.4773 191.742 21.7306 193.012 19.3389C194.319 16.9472 196.074 15.0974 198.278 13.7895C200.518 12.4442 202.983 11.7715 205.672 11.7715C208.1 11.7715 210.21 12.2573 212.003 13.2289C213.833 14.1632 215.289 15.3403 216.372 16.7604V12.276H222.815V43.1622H216.372V38.5657C215.289 40.0231 213.814 41.2377 211.947 42.2093C210.079 43.1809 207.951 43.6667 205.56 43.6667C202.909 43.6667 200.481 42.994 198.278 41.6487C196.074 40.266 194.319 38.3602 193.012 35.9311C191.742 33.4647 191.107 30.6807 191.107 27.579ZM216.372 27.6911C216.372 25.561 215.924 23.7112 215.028 22.1417C214.169 20.5721 213.03 19.3763 211.611 18.5541C210.191 17.732 208.66 17.3209 207.017 17.3209C205.374 17.3209 203.842 17.732 202.423 18.5541C201.004 19.3389 199.846 20.5161 198.95 22.0856C198.091 23.6178 197.661 25.4489 197.661 27.579C197.661 29.7091 198.091 31.5775 198.95 33.1845C199.846 34.7914 201.004 36.0246 202.423 36.8841C203.88 37.7062 205.411 38.1173 207.017 38.1173C208.66 38.1173 210.191 37.7062 211.611 36.8841C213.03 36.0619 214.169 34.8661 215.028 33.2966C215.924 31.6897 216.372 29.8212 216.372 27.6911Z" fill="#0A090B"/>
<path d="M235.917 38.0052H249.082V43.1622H229.531V4.20411H235.917V38.0052Z" fill="#0A090B"/>
<path d="M256 8.184C254.842 8.184 253.871 7.79162 253.087 7.00685C252.302 6.22209 251.91 5.25047 251.91 4.092C251.91 2.93354 252.302 1.96192 253.087 1.17715C253.871 0.392384 254.842 0 256 0C257.12 0 258.073 0.392384 258.857 1.17715C259.641 1.96192 260.033 2.93354 260.033 4.092C260.033 5.25047 259.641 6.22209 258.857 7.00685C258.073 7.79162 257.12 8.184 256 8.184ZM259.137 12.276V43.1622H252.751V12.276H259.137Z" fill="#0A090B"/>
<path d="M281.423 11.7715C283.851 11.7715 286.017 12.276 287.922 13.285C289.864 14.294 291.376 15.7888 292.46 17.7694C293.543 19.75 294.084 22.1417 294.084 24.9444V43.1622H287.754V25.8973C287.754 23.132 287.063 21.0206 285.681 19.5631C284.299 18.0683 282.413 17.3209 280.023 17.3209C277.633 17.3209 275.728 18.0683 274.309 19.5631C272.927 21.0206 272.236 23.132 272.236 25.8973V43.1622H265.85V12.276H272.236V15.8075C273.282 14.5369 274.607 13.5466 276.213 12.8366C277.857 12.1265 279.593 11.7715 281.423 11.7715Z" fill="#0A090B"/>
<path d="M312.771 27.7471L327 43.1622H318.373L306.944 29.8772V43.1622H300.558V1.68165H306.944V25.7852L318.149 12.276H327L312.771 27.7471Z" fill="#0A090B"/>
<path d="M188.394 50.3757V63.2416H187.106V50.3757H188.394Z" fill="#0A090B" fill-opacity="0.81"/>
<path d="M199.364 53.0078C200.565 53.0078 201.546 53.382 202.307 54.1306C203.067 54.8668 203.447 55.9405 203.447 57.3516V63.2416H202.178V57.4989C202.178 56.4068 201.902 55.5724 201.35 54.9956C200.811 54.4189 200.069 54.1306 199.124 54.1306C198.156 54.1306 197.383 54.4373 196.807 55.0509C196.23 55.6644 195.942 56.5663 195.942 57.7565V63.2416H194.655V53.1918H195.942V54.9036C196.261 54.2901 196.721 53.8238 197.322 53.5047C197.923 53.1734 198.603 53.0078 199.364 53.0078Z" fill="#0A090B" fill-opacity="0.81"/>
<path d="M214.349 53.0078C215.551 53.0078 216.532 53.382 217.292 54.1306C218.052 54.8668 218.432 55.9405 218.432 57.3516V63.2416H217.163V57.4989C217.163 56.4068 216.887 55.5724 216.335 54.9956C215.796 54.4189 215.054 54.1306 214.11 54.1306C213.141 54.1306 212.368 54.4373 211.792 55.0509C211.215 55.6644 210.927 56.5663 210.927 57.7565V63.2416H209.64V53.1918H210.927V54.9036C211.246 54.2901 211.706 53.8238 212.307 53.5047C212.908 53.1734 213.588 53.0078 214.349 53.0078Z" fill="#0A090B" fill-opacity="0.81"/>
<path d="M229.021 63.3888C228.077 63.3888 227.225 63.1802 226.464 62.763C225.716 62.3335 225.121 61.7323 224.68 60.9592C224.251 60.1739 224.036 59.2597 224.036 58.2167C224.036 57.1737 224.257 56.2657 224.698 55.4926C225.14 54.7073 225.741 54.106 226.501 53.6888C227.261 53.2593 228.114 53.0446 229.058 53.0446C230.002 53.0446 230.854 53.2593 231.615 53.6888C232.387 54.106 232.988 54.7073 233.417 55.4926C233.859 56.2657 234.08 57.1737 234.08 58.2167C234.08 59.2474 233.859 60.1555 233.417 60.9408C232.976 61.7261 232.369 62.3335 231.596 62.763C230.824 63.1802 229.965 63.3888 229.021 63.3888ZM229.021 62.266C229.683 62.266 230.296 62.1188 230.861 61.8243C231.425 61.5175 231.878 61.0635 232.222 60.4622C232.577 59.8487 232.755 59.1002 232.755 58.2167C232.755 57.3332 232.584 56.5908 232.24 55.9896C231.897 55.376 231.443 54.922 230.879 54.6275C230.315 54.3207 229.702 54.1674 229.04 54.1674C228.377 54.1674 227.764 54.3207 227.2 54.6275C226.636 54.922 226.182 55.376 225.839 55.9896C225.508 56.5908 225.342 57.3332 225.342 58.2167C225.342 59.1002 225.508 59.8487 225.839 60.4622C226.182 61.0635 226.63 61.5175 227.182 61.8243C227.746 62.1188 228.359 62.266 229.021 62.266Z" fill="#0A090B" fill-opacity="0.81"/>
<path d="M243.34 61.9899L246.725 53.1918H248.086L244.057 63.2416H242.604L238.576 53.1918H239.955L243.34 61.9899Z" fill="#0A090B" fill-opacity="0.81"/>
<path d="M252.587 58.1983C252.587 57.1675 252.789 56.2657 253.194 55.4926C253.611 54.7073 254.181 54.106 254.905 53.6888C255.641 53.2593 256.468 53.0446 257.388 53.0446C258.345 53.0446 259.166 53.2655 259.853 53.7072C260.552 54.149 261.055 54.7134 261.361 55.4006V53.1918H262.649V63.2416H261.361V61.0144C261.043 61.7016 260.534 62.2722 259.835 62.7262C259.148 63.1679 258.326 63.3888 257.37 63.3888C256.462 63.3888 255.641 63.1741 254.905 62.7446C254.181 62.3151 253.611 61.7077 253.194 60.9224C252.789 60.1371 252.587 59.229 252.587 58.1983ZM261.361 58.2167C261.361 57.4068 261.196 56.6951 260.865 56.0816C260.534 55.4681 260.08 54.9956 259.504 54.6643C258.94 54.333 258.314 54.1674 257.627 54.1674C256.916 54.1674 256.278 54.3269 255.714 54.6459C255.15 54.965 254.703 55.4312 254.371 56.0448C254.053 56.646 253.893 57.3639 253.893 58.1983C253.893 59.0204 254.053 59.7444 254.371 60.3702C254.703 60.9837 255.15 61.4562 255.714 61.7875C256.278 62.1065 256.916 62.266 257.627 62.266C258.314 62.266 258.94 62.1004 259.504 61.7691C260.08 61.4378 260.534 60.9653 260.865 60.3518C261.196 59.7383 261.361 59.0266 261.361 58.2167Z" fill="#0A090B" fill-opacity="0.81"/>
<path d="M270.607 54.2778V60.5174C270.607 61.131 270.724 61.5543 270.957 61.7875C271.19 62.0206 271.601 62.1372 272.189 62.1372H273.366V63.2416H271.987C271.079 63.2416 270.405 63.0329 269.963 62.6157C269.522 62.1863 269.301 61.4868 269.301 60.5174V54.2778H267.903V53.1918H269.301V50.6702H270.607V53.1918H273.366V54.2778H270.607Z" fill="#0A090B" fill-opacity="0.81"/>
<path d="M279.478 51.296C279.221 51.296 279 51.204 278.816 51.0199C278.632 50.8359 278.54 50.6089 278.54 50.3389C278.54 50.0689 278.632 49.8481 278.816 49.6763C279 49.4922 279.221 49.4002 279.478 49.4002C279.736 49.4002 279.957 49.4922 280.141 49.6763C280.325 49.8481 280.417 50.0689 280.417 50.3389C280.417 50.6089 280.325 50.8359 280.141 51.0199C279.957 51.204 279.736 51.296 279.478 51.296ZM280.122 53.1918V63.2416H278.835V53.1918H280.122Z" fill="#0A090B" fill-opacity="0.81"/>
<path d="M290.779 63.3888C289.835 63.3888 288.983 63.1802 288.222 62.763C287.474 62.3335 286.879 61.7323 286.438 60.9592C286.009 60.1739 285.794 59.2597 285.794 58.2167C285.794 57.1737 286.015 56.2657 286.456 55.4926C286.898 54.7073 287.499 54.106 288.259 53.6888C289.019 53.2593 289.872 53.0446 290.816 53.0446C291.76 53.0446 292.612 53.2593 293.373 53.6888C294.145 54.106 294.746 54.7073 295.175 55.4926C295.617 56.2657 295.838 57.1737 295.838 58.2167C295.838 59.2474 295.617 60.1555 295.175 60.9408C294.734 61.7261 294.127 62.3335 293.354 62.763C292.582 63.1802 291.723 63.3888 290.779 63.3888ZM290.779 62.266C291.441 62.266 292.054 62.1188 292.619 61.8243C293.183 61.5175 293.636 61.0635 293.98 60.4622C294.335 59.8487 294.513 59.1002 294.513 58.2167C294.513 57.3332 294.342 56.5908 293.998 55.9896C293.655 55.376 293.201 54.922 292.637 54.6275C292.073 54.3207 291.46 54.1674 290.797 54.1674C290.135 54.1674 289.522 54.3207 288.958 54.6275C288.394 54.922 287.94 55.376 287.597 55.9896C287.266 56.5908 287.1 57.3332 287.1 58.2167C287.1 59.1002 287.266 59.8487 287.597 60.4622C287.94 61.0635 288.388 61.5175 288.94 61.8243C289.504 62.1188 290.117 62.266 290.779 62.266Z" fill="#0A090B" fill-opacity="0.81"/>
<path d="M306.239 53.0078C307.44 53.0078 308.421 53.382 309.182 54.1306C309.942 54.8668 310.322 55.9405 310.322 57.3516V63.2416H309.053V57.4989C309.053 56.4068 308.777 55.5724 308.225 54.9956C307.686 54.4189 306.944 54.1306 305.999 54.1306C305.031 54.1306 304.258 54.4373 303.682 55.0509C303.105 55.6644 302.817 56.5663 302.817 57.7565V63.2416H301.529V53.1918H302.817V54.9036C303.136 54.2901 303.596 53.8238 304.197 53.5047C304.798 53.1734 305.478 53.0078 306.239 53.0078Z" fill="#0A090B" fill-opacity="0.81"/>
<path d="M319.973 63.3888C318.82 63.3888 317.876 63.125 317.14 62.5973C316.416 62.0574 316.012 61.3273 315.926 60.407H317.25C317.312 60.9715 317.575 61.4316 318.041 61.7875C318.52 62.1311 319.157 62.3028 319.954 62.3028C320.653 62.3028 321.199 62.1372 321.592 61.8059C321.996 61.4746 322.199 61.0635 322.199 60.5727C322.199 60.2291 322.088 59.9469 321.867 59.726C321.647 59.5051 321.365 59.3333 321.021 59.2106C320.69 59.0756 320.236 58.9345 319.66 58.7873C318.912 58.5909 318.305 58.3946 317.839 58.1983C317.373 58.002 316.974 57.7136 316.643 57.3332C316.324 56.9405 316.165 56.419 316.165 55.7687C316.165 55.2779 316.312 54.8238 316.607 54.4066C316.901 53.9894 317.318 53.6581 317.857 53.4127C318.397 53.1673 319.01 53.0446 319.697 53.0446C320.776 53.0446 321.647 53.3207 322.309 53.8729C322.971 54.4128 323.327 55.1613 323.376 56.1184H322.088C322.051 55.5294 321.818 55.057 321.389 54.7011C320.972 54.333 320.396 54.149 319.66 54.149C319.01 54.149 318.483 54.3023 318.078 54.6091C317.673 54.9159 317.471 55.2963 317.471 55.7503C317.471 56.1429 317.588 56.4681 317.821 56.7258C318.066 56.9712 318.366 57.1675 318.722 57.3148C319.078 57.4498 319.556 57.6032 320.157 57.7749C320.88 57.9713 321.457 58.1615 321.886 58.3455C322.315 58.5296 322.683 58.7996 322.99 59.1554C323.296 59.5113 323.456 59.9837 323.468 60.5727C323.468 61.1126 323.321 61.5973 323.026 62.0267C322.732 62.444 322.321 62.7753 321.794 63.0207C321.267 63.2661 320.66 63.3888 319.973 63.3888Z" fill="#0A090B" fill-opacity="0.81"/>
</svg>
